<svg width="140" height="96" viewBox="0 0 461 96" fill="none" xmlns="http://www.w3.org/2000/svg">
<path fill-rule="evenodd" clip-rule="evenodd" d="M68.202 31.51H50.158L48.543 47.595H65.053C75.149 47.595 75.901 49.517 75.901 56.076V58.852H62.556C49.444 58.852 42.115 63.436 42.115 76.279C42.115 87.169 48.396 95.041 60.2 95.041C64.523 95.041 71.08 94.381 78.431 90.316L79.125 94.38H95.216V56.204C95.215 38.502 90.357 31.51 68.202 31.51ZM75.901 78.774C73.025 80.093 70.695 81.375 66.754 81.375C63.082 81.375 61.419 79.548 61.419 76.029C61.419 72.483 63.209 71.729 67.287 71.729H75.902L75.901 78.774ZM460.261 31.51H439.333L421.641 59.52V2.548L402.337 5.76199V94.26H421.641V64.768L439.333 94.26H460.261L440.942 62.075L460.261 31.51ZM306.882 30.646C284.189 30.646 278.667 43.366 278.667 56.482V69.143C278.667 82.254 284.188 94.972 306.882 94.972C329.561 94.972 334.984 82.254 334.984 69.143V56.482C334.983 43.366 329.561 30.646 306.882 30.646ZM315.66 71.009C315.66 75.476 313.366 79.063 306.817 79.063C300.25 79.063 297.975 75.476 297.975 71.009V54.742C297.975 50.29 300.249 46.711 306.817 46.711C313.366 46.711 315.66 50.29 315.66 54.742V71.009ZM43.822 31.51H29.23L29.254 23.459C29.254 19.266 29.654 17.018 35.679 17.018H43.729V0.932999H30.845C15.372 0.932999 9.926 8.737 9.926 21.856V31.51H0.276001V47.595H9.926V94.26H29.23V47.595H42.114L43.822 31.51ZM101.653 57.248V68.514C101.653 84.243 109.888 95.128 130.618 95.128C135.447 95.128 141.159 94.612 149.931 92.645V76.962C139.917 78.684 137.043 79.063 132.225 79.063C123.57 79.063 120.956 77.152 120.956 69.811V55.925C120.956 48.592 123.57 46.681 132.225 46.681C137.043 46.681 139.917 47.06 149.931 48.774V33.093C141.159 31.125 135.446 30.604 130.618 30.604C109.889 30.604 101.653 41.509 101.653 57.248ZM250.593 30.604C245.679 30.604 240.28 31.388 236.109 32.938V2.548L216.809 5.76199V92.645C227.312 94.26 232.901 95.098 242.411 95.098C268.765 95.098 273.113 84.011 273.113 68.81V53.134C273.112 39.248 269.9 30.604 250.593 30.604ZM253.809 68.942C253.809 74.974 252.516 79.3 243.063 79.3C240.443 79.3 238.87 79.3 236.109 79.031V49.31C238.987 47.998 241.823 46.709 245.762 46.709C252.33 46.709 253.809 50.288 253.809 54.74V68.942ZM368.707 30.646C346.014 30.646 340.489 43.366 340.489 56.482V69.143C340.489 82.254 346.013 94.972 368.707 94.972C391.379 94.972 396.805 82.254 396.805 69.143V56.482C396.805 43.366 391.379 30.646 368.707 30.646ZM377.504 71.009C377.504 75.476 375.188 79.063 368.639 79.063C362.083 79.063 359.808 75.476 359.808 71.009V54.742C359.808 50.29 362.083 46.711 368.639 46.711C375.188 46.711 377.504 50.29 377.504 54.742V71.009ZM183 30.604C161.762 30.604 155.642 41.876 155.642 55.633V68.514C155.642 84.243 163.885 95.128 184.615 95.128C194.077 95.128 199.097 94.612 208.735 92.645V76.962C198.742 78.684 193.996 79.063 186.215 79.063C177.564 79.063 174.948 77.152 174.948 69.811V68.514H210.35V55.633C210.351 41.743 204.244 30.604 183 30.604ZM191.046 55.633H174.948V53.134C174.948 48.683 176.442 45.088 183 45.088C189.55 45.088 191.046 48.683 191.046 53.134V55.633Z" fill="url(#paint0_linear)"/>
<defs>
<linearGradient id="paint0_linear" x1="230.268" y1="0.932999" x2="230.268" y2="95.128" gradientUnits="userSpaceOnUse">
<stop stop-color="#D800B9"/>
<stop offset="0.234375" stop-color="#EA0065"/>
<stop offset="0.515625" stop-color="#FF0100"/>
<stop offset="0.760417" stop-color="#FF5600"/>
<stop offset="1" stop-color="#FFD600"/>
</linearGradient>
</defs>
</svg>
