<svg xmlns="http://www.w3.org/2000/svg" xmlns:xlink="http://www.w3.org/1999/xlink" version="1.1" x="0px" y="0px" viewBox="0 0 100 125" enable-background="new 0 0 100 100" xml:space="preserve"><path fill="#000000" d="M88.115,91.879c1.104,0,2-0.896,2-2c0-16.566-10.101-31.484-24.975-37.537C70.549,47.845,74,41.068,74,33.5  C74,19.991,63.009,9,49.5,9S25,19.991,25,33.5c0,7.571,3.453,14.35,8.866,18.848C19.38,58.297,9.885,72.914,9.885,89.879  c0,1.104,0.896,2,2,2s2-0.896,2-2c0-16.31,9.654-30.195,24.084-34.77C41.408,56.952,45.333,58,49.5,58  c4.167,0,8.092-1.048,11.531-2.891c14.799,4.681,25.084,18.882,25.084,34.77C86.115,90.984,87.01,91.879,88.115,91.879z M29,33.5  C29,22.196,38.196,13,49.5,13S70,22.196,70,33.5S60.804,54,49.5,54S29,44.804,29,33.5z"/></svg>