<svg width="12" height="13" viewBox="0 0 12 13" fill="none" xmlns="http://www.w3.org/2000/svg">
<path fill-rule="evenodd" clip-rule="evenodd" d="M6 0.199951C5.44772 0.199951 5 0.647666 5 1.19995V5.19995H1C0.447715 5.19995 0 5.64767 0 6.19995C0 6.75224 0.447715 7.19995 1 7.19995H5V11.2C5 11.7522 5.44772 12.2 6 12.2C6.55228 12.2 7 11.7522 7 11.2V7.19995H11C11.5523 7.19995 12 6.75224 12 6.19995C12 5.64767 11.5523 5.19995 11 5.19995H7V1.19995C7 0.647666 6.55228 0.199951 6 0.199951Z" fill="white"/>
</svg>
